<?xml version="1.0" encoding="UTF-8" standalone="no"?>
<!-- Created with Inkscape (http://www.inkscape.org/) -->

<svg
   width="210mm"
   height="297mm"
   viewBox="0 0 210 297"
   version="1.1"
   id="svg5"
   inkscape:version="1.1 (c68e22c387, 2021-05-23)"
   sodipodi:docname="Mountain Microgrids Logo - twin peaks 1c3160 .svg"
   xmlns:inkscape="http://www.inkscape.org/namespaces/inkscape"
   xmlns:sodipodi="http://sodipodi.sourceforge.net/DTD/sodipodi-0.dtd"
   xmlns="http://www.w3.org/2000/svg"
   xmlns:svg="http://www.w3.org/2000/svg">
  <sodipodi:namedview
     id="namedview7"
     pagecolor="#ffffff"
     bordercolor="#666666"
     borderopacity="1.0"
     inkscape:pageshadow="2"
     inkscape:pageopacity="0.0"
     inkscape:pagecheckerboard="0"
     inkscape:document-units="mm"
     showgrid="false"
     inkscape:zoom="0.67081229"
     inkscape:cx="322.74304"
     inkscape:cy="368.95567"
     inkscape:window-width="1284"
     inkscape:window-height="1003"
     inkscape:window-x="938"
     inkscape:window-y="355"
     inkscape:window-maximized="0"
     inkscape:current-layer="g17" />
  <defs
     id="defs2" />
  <g
     inkscape:label="Layer 1"
     inkscape:groupmode="layer"
     id="layer1">
    <g
       id="g17"
       transform="matrix(0.26458333,0,0,0.26458333,65.292637,-37.124058)">
	
	
	<path
   class="st1"
   d="M 35.464442,291.70714 96.81162,393.74291 c 3.2478,6.04657 10.82598,7.93612 16.23896,4.15701 0,0 0.36087,0 0.36087,-0.37791 v 0 0 0 l 46.55168,-32.50028 c 0,0 72.53402,81.62862 111.86839,126.22203 v 0 0 0 c 1.80433,1.88955 4.69126,1.51164 6.49559,-0.37791 0.72173,-0.75582 1.08259,-1.88955 1.08259,-3.02328 0,-0.75582 -0.36086,-1.51164 -0.36086,-2.26746 v 0 c -22.73455,-42.70386 -64.59498,-117.90801 -98.87722,-180.2632 -5.77386,-10.58149 -12.99117,-12.47104 -23.09541,-5.29074 l -31.39532,22.67461 -79.029608,-128.11157 -0.36086,-0.75583 v -0.37791 0 c -2.52606,-3.7791 -6.49559,-6.04656 -10.82598,-6.04656 -3.96952,0 -7.93904,1.88955 -10.4651,4.91283 v 0 l -0.72174,0.75582 c 0,0.37791 -0.36086,0.37791 -0.36086,0.75582 -87.69038,123.19875 -175.380762,246.01958 -263.432012,368.84042 v 0 c -3.24779,4.53492 -2.1652,10.9594 2.16519,14.36059 1.80433,1.13373 3.60866,1.88955 5.77386,1.88955 1.44346,0 2.88692,-0.37791 4.33038,-1.13373 v 0"
   id="path15"
   style="stroke-width:3.6929;fill:#1c3160;fill-opacity:1"
   sodipodi:nodetypes="cccsccccsccsssssccccccssscccsscssc" />

<path
   class="st1"
   d="m 368.53768,400.23476 42.29316,77.2315 c 2.22967,4.57131 7.61019,6.09098 11.52811,3.33727 0,0 0.25753,0.005 0.26304,-0.27789 v 0 0 0 l 33.69426,-23.68186 c 0,0 50.57372,62.11092 77.9945,96.03785 v 0 0 0 c 1.26011,1.4395 3.32583,1.19669 4.64099,-0.19268 0.52605,-0.55576 0.80009,-1.39941 0.8166,-2.24807 0.011,-0.56578 -0.2355,-1.13655 -0.22454,-1.70233 v 0 c -15.60212,-32.28197 -44.37971,-89.15788 -67.93639,-136.31036 -3.96631,-8.00103 -9.0893,-9.51569 -16.40462,-4.28113 l -22.73503,16.53727 -54.53212,-96.99628 -0.24652,-0.57079 0.006,-0.28289 v 0 c -1.74764,-2.86395 -4.54739,-4.6164 -7.63771,-4.67653 -2.83279,-0.0551 -5.69309,1.3042 -7.53981,3.5322 v 0 l -0.52605,0.55576 c -0.006,0.28291 -0.26304,0.27788 -0.26854,0.56076 -64.37334,91.00361 -128.74117,181.72429 -193.36652,272.44 v 0 c -2.38379,3.34954 -1.7048,8.17366 1.33597,10.77978 1.27112,0.87371 2.54774,1.46455 4.0929,1.49462 1.0301,0.02 2.0657,-0.24285 3.10681,-0.78853 v 0"
   id="path879"
   style="stroke-width:2.69961;fill:#4288de;fill-opacity:1"
   sodipodi:nodetypes="cccsccccsccsssssccccccssscccsscssc" />
</g>
  </g>
  <style
     type="text/css"
     id="style9">
	.st0{fill:#808080;}
	.st1{fill:#428813;}
</style>
</svg>
