<?xml version="1.0" encoding="UTF-8" standalone="no"?>

<svg
   width="700"
   height="450"
   viewBox="0 0 185.20839 119.0625"
   version="1.1"
   id="svg5"
   xmlns="http://www.w3.org/2000/svg"
   xmlns:svg="http://www.w3.org/2000/svg">
  <defs
     id="defs2" />
  <g
     id="layer1"
     transform="translate(-2.7518002,-1.5885333)">
    <g
       id="g17"
       transform="matrix(0.26458333,0,0,0.26458333,74.911266,-19.312755)">
      <path
         id="path15"
         style="fill:#1c3160;fill-opacity:1;stroke-width:3.75522"
         class="st1"
         d="m 13.81416,87.996997 c -4.0365103,0 -8.07389,1.921791 -10.64258,4.996094 l -0.73437,0.769531 c 0,0.384288 -0.36524,0.38329 -0.36524,0.767578 -89.17032,125.27796 -178.34358,250.17077 -267.88086,375.06445 -3.30261,4.61145 -2.20034,11.14688 2.20313,14.60547 1.83478,1.15286 3.66935,1.91992 5.87109,1.91992 1.46782,0 2.93648,-0.38377 4.4043,-1.15234 L 13.81416,194.06145 76.19697,297.81926 c 3.30261,6.14862 11.00739,8.06945 16.51172,4.22656 0,0 0.36719,-4.7e-4 0.36719,-0.38476 l 47.33594,-33.04688 c 0,0 36.06276,40.68319 67.04687,75.64844 0.37096,-1.40309 0.93487,-2.75001 1.39649,-4.12695 2.27541,-2.38948 3.72251,-4.61281 5.65234,-7.26758 0.4193,-0.57681 0.887,-1.12226 1.3125,-1.69531 -0.67246,-4.78965 3.15909,-4.90385 6.67383,-8.75196 0.29,-0.3175 -0.83883,0.27312 -1.26758,0.24024 -0.2016,-0.0154 0.33767,-0.2321 0.5293,-0.29688 0.63327,-0.21415 1.27426,-0.40477 1.91601,-0.59179 -20.19231,-36.747 -42.23025,-76.62866 -62.70898,-113.87696 -5.87131,-10.76008 -13.21156,-12.68234 -23.48633,-5.38086 L 105.55244,225.57317 25.18916,95.299732 24.82197,94.5302 V 94.145435 C 22.25328,90.302555 18.21763,87.996997 13.81416,87.996997 Z M 223.78291,321.97551 c -0.0372,0.0104 -0.0764,0.0141 -0.11328,0.0254 -1.94079,0.59639 -0.74237,1.50689 1.55273,2.58789 -0.46031,-0.83807 -0.97626,-1.77032 -1.43945,-2.61328 z m -7.45508,7.51563 c -0.062,0.27873 -0.12758,0.77889 -0.19336,1.23437 0.14708,-0.21786 0.2871,-0.44016 0.41211,-0.67187 0.0953,-0.17659 -0.14618,-0.37538 -0.21875,-0.5625 z" />
      <path
         class="st1"
         d="m 246.7133,307.45176 43.00694,78.53493 c 2.2673,4.64846 7.73862,6.19377 11.72267,3.39359 0,0 0.26187,0.005 0.26748,-0.28258 v 0 0 0 l 34.26291,-24.08154 c 0,0 51.42725,63.15916 79.31081,97.65868 v 0 0 0 c 1.28137,1.46379 3.38196,1.21688 4.71931,-0.19594 0.53493,-0.56514 0.8136,-1.42302 0.83038,-2.28601 0.0112,-0.57533 -0.23947,-1.15573 -0.22833,-1.73106 v 0 c -15.86543,-32.82679 -45.1287,-90.66259 -69.08294,-138.61086 -4.03325,-8.13606 -9.2427,-9.67628 -16.68148,-4.35338 l -23.11873,16.81637 -55.45245,-98.63328 -0.25068,-0.58042 0.006,-0.28766 v 0 c -1.77714,-2.91229 -4.62414,-4.69432 -7.76661,-4.75546 -2.8806,-0.056 -5.78917,1.32621 -7.66706,3.59181 v 0 l -0.53493,0.56514 c -0.006,0.28769 -0.26748,0.28257 -0.27307,0.57023 -65.45977,92.53947 -130.91393,184.79123 -196.629953,277.03794 v 0 c -2.424021,3.40607 -1.733572,8.31161 1.358517,10.96171 1.292572,0.88846 2.590738,1.48927 4.161975,1.51985 1.047486,0.0203 2.100564,-0.24695 3.159245,-0.80184 v 0"
         id="path879"
         style="fill:#4288de;fill-opacity:1;stroke-width:2.74517" />
    </g>
  </g>
  <style
     type="text/css"
     id="style9">
	.st0{fill:#808080;}
	.st1{fill:#428813;}
</style>
</svg>
